PathFileType	4	(X/Y/Z)	/Users/itak/Documents/Research/Walk-IL/dataset/trc/00150_00007.trc
DataRate	CameraRate	NumFrames	NumMarkers	Units	OrigDataRate	OrigDataStartFrame	OrigNumFrames
100.000000	100.000000	4	53	mm	100.000000	348	557
Frame#	Time	RPSI			LPSI			L3			STRN			T10			C7			CLAV			RBAK			LBAK			LSHO			LUPA			LAEL			LAOL			LWTS			LWPS			LFRA			LIFD			LHPS			LHTS			RSHO			RUPA			RAEL			RAOL			RWTS			RWPS			RFRA			RIFD			RHTS			RHPS			RBHD			LFHD			RFHD			LBHD			LHIP			RHIP			RASI			LASI			LKNE			LTHI			LANK			LTIP			LTOE			LMT1			LMT5			LHEE			RKNE			RTHI			RANK			RTIP			RTOE			RMT1			RMT5			RHEE			
		X1	Y1	Z1	X2	Y2	Z2	X3	Y3	Z3	X4	Y4	Z4	X5	Y5	Z5	X6	Y6	Z6	X7	Y7	Z7	X8	Y8	Z8	X9	Y9	Z9	X10	Y10	Z10	X11	Y11	Z11	X12	Y12	Z12	X13	Y13	Z13	X14	Y14	Z14	X15	Y15	Z15	X16	Y16	Z16	X17	Y17	Z17	X18	Y18	Z18	X19	Y19	Z19	X20	Y20	Z20	X21	Y21	Z21	X22	Y22	Z22	X23	Y23	Z23	X24	Y24	Z24	X25	Y25	Z25	X26	Y26	Z26	X27	Y27	Z27	X28	Y28	Z28	X29	Y29	Z29	X30	Y30	Z30	X31	Y31	Z31	X32	Y32	Z32	X33	Y33	Z33	X34	Y34	Z34	X35	Y35	Z35	X36	Y36	Z36	X37	Y37	Z37	X38	Y38	Z38	X39	Y39	Z39	X40	Y40	Z40	X41	Y41	Z41	X42	Y42	Z42	X43	Y43	Z43	X44	Y44	Z44	X45	Y45	Z45	X46	Y46	Z46	X47	Y47	Z47	X48	Y48	Z48	X49	Y49	Z49	X50	Y50	Z50	X51	Y51	Z51	X52	Y52	Z52	X53	Y53	Z53	

349	3.48	121.0721130371094	1110.132446289062	-1.048317193984985	228.3798217773438	1112.691650390625	-80.07947540283203	168.0741424560547	1148.0205078125	-49.1796989440918	291.4152526855469	1355.98388671875	129.7604522705078	146.8517913818359	1299.545776367188	-77.06957244873047	172.8432769775391	1592.799926757812	-61.20094680786133	271.9980773925781	1489.531982421875	94.20531463623047	72.61822509765625	1407.313842773438	-50.49402618408203	252.8256072998047	1573.365356445312	-124.9518432617188	358.245849609375	1560.799194335938	-93.64373016357422	403.4849853515625	1429.922729492188	-152.5481872558594	427.1654357910156	1211.232055664062	-160.1915740966797	341.4313049316406	1200.159423828125	-178.0495300292969	452.4802856445312	950.83642578125	-60.5337028503418	423.7283020019531	926.4020385742188	-141.5908050537109	439.7124938964844	1094.2421875	-153.0163116455078	446.7082214355469	758.7048950195312	-39.99555587768555	442.7568054199219	851.5161743164062	-119.8523483276367	471.3370666503906	863.3624877929688	-57.27276229858398	57.83900451660156	1576.291625976562	89.83681488037109	-2.299099206924438	1502.855712890625	115.3704605102539	-18.8213939666748	1207.046875	143.4733581542969	55.83097839355469	1202.997436523438	80.12624359130859	106.0417175292969	998.5430297851562	288.9209594726562	37.40251922607422	966.774658203125	253.8836669921875	-9.827770233154297	1138.855224609375	182.820068359375	157.8337707519531	814.6808471679688	332.8469848632812	130.9330139160156	900.0283203125	334.718994140625	69.59703063964844	877.6936645507812	302.5925598144531	132.4168243408203	1766.8251953125	8.344711303710938	317.3097229003906	1832.277465820312	110.9078063964844	198.5920257568359	1827.226684570312	163.9959106445312	253.3917541503906	1776.61962890625	-52.03778457641602	377.0238342285156	1031.8212890625	-56.57980728149414	96.34819793701172	1017.567199707031	170.9207611083984	181.9706115722656	1095.811157226562	207.8882446289062	395.5950622558594	1101.261474609375	51.75394058227539	475.4764404296875	547.00341796875	96.62583923339844	453.2512817382812	688.8668212890625	30.28705978393555	300.8078918457031	166.7026672363281	-229.6122894287109	388.9482421875	375	-99.87450408935547	401.0954895019531	51.65692138671875	-61.28966522216797	327.9330139160156	80.51457214355469	-84.37033843994141	392.37646484375	104.5052337646484	-175.9481353759766	212.3236846923828	193.1681213378906	-230.0768890380859	184.7482757568359	527.5567626953125	133.9534606933594	136.894287109375	802.8447875976562	179.9446868896484	221.5893402099609	26.22414588928223	13.73587703704834	180.5406951904297	392.9032897949219	112.5804672241211	387.3655395507812	40.50092315673828	187.0644226074219	389.6340026855469	36.53593826293945	112.4428329467773	270.6963806152344	39.02997207641602	141.0162506103516	236.2351837158203	28.20347213745117	-58.83267593383789	
350	3.49	125.3828125	1110.55908203125	3.02299976348877	234.3318328857422	1112.894165039062	-74.26338958740234	174.3932189941406	1148.041625976562	-43.89450454711914	294.3945922851562	1356.104614257812	136.4430236816406	151.9847259521484	1299.642333984375	-71.33191680908203	177.7408752441406	1592.936889648438	-55.6906852722168	275.5071716308594	1489.636596679688	100.5281982421875	77.02985382080078	1407.597534179688	-45.99220275878906	258.1384887695312	1573.341552734375	-118.8147659301758	363.3564147949219	1560.66943359375	-86.68692016601562	408.7289428710938	1429.793701171875	-145.4573516845703	431.8283996582031	1211.10546875	-153.6571960449219	346.1134033203125	1200.148803710938	-172.0042266845703	456.1543884277344	950.6365966796875	-53.96109390258789	427.8385620117188	926.2401733398438	-135.1723937988281	444.1036682128906	1094.059326171875	-146.5182189941406	449.6885375976562	758.489501953125	-33.36194229125977	446.4778747558594	851.2891235351562	-113.3002853393555	474.7249450683594	863.0397338867188	-50.54969787597656	61.52970886230469	1576.60107421875	94.43486785888672	1.194741129875183	1503.207153320312	119.6639938354492	-15.12225532531738	1207.359252929688	149.4982147216797	59.62333297729492	1203.102172851562	86.24948883056641	110.5909271240234	1000.941223144531	297.1507263183594	42.21760177612305	968.3876342773438	262.3185119628906	-5.851356029510498	1139.492065429688	189.4677276611328	163.3644409179688	817.91162109375	343.3268737792969	135.9568786621094	903.13818359375	344.1449279785156	74.8023681640625	880.0696411132812	312.0935668945312	136.9878997802734	1767.073120117188	13.9185848236084	321.5301818847656	1832.102294921875	117.3220138549805	202.5771942138672	1827.260498046875	169.8612670898438	258.2425231933594	1776.553588867188	-45.88419723510742	382.6267700195312	1032.349487304688	-48.44961166381836	98.62331390380859	1017.494873046875	174.6684417724609	183.6171264648438	1095.792602539062	213.2130432128906	399.6325378417969	1102.013305664062	59.93206787109375	481.4534606933594	549.9022216796875	111.8505554199219	459.9483032226562	690.8224487304688	43.26990127563477	322.6615905761719	158.5671844482422	-209.2032775878906	403.323486328125	371.753173828125	-82.72901916503906	420.7039489746094	51.09585952758789	-34.41374969482422	347.486328125	77.45414733886719	-60.40522384643555	413.9241943359375	99.98518371582031	-150.9689636230469	233.7401275634766	182.8765411376953	-212.8736267089844	185.9082641601562	527.4118041992188	135.9647979736328	138.7273559570312	802.689697265625	183.1484375	221.6784210205078	26.33950805664062	13.65742683410645	181.3897857666016	392.8551330566406	113.7931594848633	387.3019409179688	40.44600677490234	187.2577209472656	389.6103210449219	36.69279098510742	112.5823135375977	270.6126098632812	38.97603607177734	141.0986633300781	236.687255859375	28.26596641540527	-58.79390716552734	
351	3.5	129.6327056884766	1110.958374023438	7.01957893371582	240.2849426269531	1113.098510742188	-68.43162536621094	180.5251159667969	1148.102905273438	-38.68560028076172	297.3154602050781	1356.187255859375	143.1189575195312	157.1016387939453	1299.701782226562	-65.5677490234375	182.6317138671875	1593.0478515625	-50.19347381591797	278.947265625	1489.7060546875	106.8573226928711	81.45296478271484	1407.853149414062	-41.54938507080078	263.4599914550781	1573.295776367188	-112.6664733886719	368.4529724121094	1560.515625	-79.67920684814453	413.9974060058594	1429.635131835938	-138.2728881835938	436.5701904296875	1210.951904296875	-146.9418487548828	350.8943481445312	1200.10107421875	-165.8383178710938	459.8013916015625	950.386474609375	-47.26361846923828	432.0414733886719	926.0619506835938	-128.6669158935547	448.5718383789062	1093.861572265625	-139.8473663330078	452.6975402832031	758.2128295898438	-26.72252464294434	450.3009033203125	851.0475463867188	-106.6825714111328	478.1174926757812	862.6768798828125	-43.72617721557617	65.16318511962891	1576.872436523438	98.98290252685547	4.65753698348999	1503.506591796875	123.8760604858398	-11.46202564239502	1207.640625	155.3992309570312	63.41278076171875	1203.19775390625	92.28617095947266	115.0129318237305	1003.230102539062	305.1729736328125	46.90497970581055	969.9301147460938	270.5305480957031	-1.930745959281921	1140.088745117188	195.9710388183594	168.6781311035156	820.9833374023438	353.4551391601562	140.7991638183594	906.0889892578125	353.2822570800781	79.84191131591797	882.348876953125	321.3153076171875	141.5198974609375	1767.275268554688	19.45769309997559	325.6908874511719	1831.9306640625	123.7123565673828	206.4937896728516	1827.29052734375	175.6846466064453	263.0531616210938	1776.427368164062	-39.74481201171875	388.1236877441406	1032.843017578125	-40.34737777709961	100.9312133789062	1017.411560058594	178.3995208740234	185.2487182617188	1095.738525390625	218.4757080078125	403.6295471191406	1102.715698242188	68.13173675537109	486.94287109375	552.6981201171875	126.7560577392578	466.3114624023438	692.724365234375	56.04980850219727	344.3156433105469	150.2193450927734	-187.8387756347656	417.451171875	368.2227172851562	-65.32003021240234	439.8208312988281	50.72445297241211	-6.786853313446045	366.6599426269531	74.34671783447266	-35.66204071044922	435.1417236328125	95.54911041259766	-125.1551666259766	255.1441650390625	172.2315673828125	-194.7190246582031	187.2162475585938	527.2794189453125	138.0138092041016	140.61181640625	802.5315551757812	186.3237457275391	221.7950897216797	26.49064636230469	13.57194328308105	182.4174194335938	392.8129577636719	115.073600769043	387.2619018554688	40.39350891113281	187.4292907714844	389.6181335449219	36.83362579345703	112.7395248413086	270.5539855957031	38.93704986572266	141.1670074462891	237.0241851806641	28.39039421081543	-58.81825256347656	
352	3.51	133.8935852050781	1111.282836914062	10.98906898498535	246.2240753173828	1113.294189453125	-62.58015823364258	186.3138580322266	1148.218139648438	-33.59107208251953	300.1910095214844	1356.235473632812	149.7818603515625	162.1933441162109	1299.721557617188	-59.825927734375	187.5129241943359	1593.128662109375	-44.71036911010742	282.3309020996094	1489.743896484375	113.1885223388672	85.91454315185547	1408.073364257812	-37.14894104003906	268.7882080078125	1573.233764648438	-106.5097045898438	373.5346374511719	1560.351196289062	-72.62928009033203	419.2900390625	1429.459716796875	-131.0059661865234	441.3833618164062	1210.779296875	-140.0543212890625	355.7631530761719	1200.032470703125	-159.5305480957031	463.4396667480469	950.0904541015625	-40.45669555664062	436.3143005371094	925.8739624023438	-122.0789489746094	453.1079711914062	1093.656860351562	-133.0155334472656	455.7247924804688	757.879638671875	-20.09348297119141	454.2020263671875	850.7952270507812	-100.0100784301758	481.5179748535156	862.2777099609375	-36.82746887207031	68.73824310302734	1577.105590820312	103.4797210693359	8.093245506286621	1503.75146484375	128.00927734375	-7.832296848297119	1207.88720703125	161.1820220947266	67.23294067382812	1203.280639648438	98.25794982910156	119.315544128418	1005.400146484375	312.9894714355469	51.47449111938477	971.3959350585938	278.5229797363281	1.938323497772217	1140.64404296875	202.3319396972656	173.7862396240234	823.8773193359375	363.2142333984375	145.4826812744141	908.866943359375	362.123779296875	84.73165130615234	884.5162963867188	330.2539978027344	146.0171203613281	1767.439086914062	24.96427345275879	329.7977600097656	1831.757202148438	130.0815277099609	210.3486785888672	1827.314086914062	181.4714050292969	267.8251342773438	1776.264526367188	-33.62508010864258	393.5537109375	1033.296752929688	-32.25067901611328	103.2751235961914	1017.318054199219	182.1159515380859	186.8692474365234	1095.650024414062	223.68017578125	407.5658874511719	1103.329345703125	76.37471008300781	491.9874877929688	555.3709716796875	141.2911376953125	472.3563537597656	694.5463256835938	68.58229064941406	365.6903991699219	141.7754364013672	-165.5428009033203	431.2841796875	364.5093994140625	-47.67746353149414	458.3275756835938	50.58535385131836	21.48649215698242	385.3814392089844	71.32036590576172	-10.21241188049316	455.9336547851562	91.28003692626953	-98.57225799560547	276.4081115722656	161.3589324951172	-175.5845642089844	188.6556091308594	527.1548461914062	140.1134948730469	142.532470703125	802.3677978515625	189.4511260986328	221.9329681396484	26.67784881591797	13.48698902130127	183.6035766601562	392.770751953125	116.4186477661133	387.2474060058594	40.33459854125977	187.58740234375	389.6658020019531	36.97164535522461	112.9339752197266	270.5157165527344	38.90547943115234	141.2244873046875	237.1903991699219	28.59619903564453	-58.91314697265625	
